<svg xmlns="http://www.w3.org/2000/svg" xmlns:xlink="http://www.w3.org/1999/xlink" width="2048" zoomAndPan="magnify" viewBox="0 0 1536 1535.999932" height="2048" preserveAspectRatio="xMidYMid meet" version="1.0"><path fill="#efefef" d="M 2.78125 8.769531 C 20.382812 28.929688 41.824219 46.210938 61.667969 64.132812 C 81.507812 82.054688 100.902344 99.59375 120.679688 117.132812 C 158.445312 150.609375 196.59375 183.761719 232.691406 219.03125 C 253.046875 238.871094 272.886719 259.417969 291.003906 281.371094 L 297.210938 266.332031 C 272.3125 268.957031 247.285156 271.195312 222.257812 272.21875 C 198.769531 273.246094 175.34375 272.730469 151.789062 272.988281 C 141.289062 273.117188 130.859375 273.691406 120.554688 275.421875 C 111.65625 276.890625 98.917969 278.429688 94.628906 287.773438 C 90.726562 296.285156 95.65625 304.414062 101.542969 310.558594 C 110.054688 319.457031 119.335938 327.714844 128.167969 336.226562 C 197.039062 402.601562 265.144531 469.679688 331.710938 538.421875 C 369.601562 577.59375 407.046875 617.214844 443.976562 657.285156 C 453.132812 667.203125 468.042969 652.292969 458.828125 642.433594 C 397.765625 577.082031 335.742188 512.628906 272.441406 449.328125 C 240.820312 417.707031 208.882812 386.34375 176.6875 355.300781 C 160.75 339.9375 144.8125 324.640625 128.617188 309.601562 C 124.839844 306.078125 121.066406 302.625 117.351562 299.101562 C 115.6875 297.566406 113.960938 295.070312 112.230469 293.664062 L 111.527344 296.796875 C 113.382812 296.222656 115.175781 295.710938 117.097656 295.199219 C 127.464844 292.574219 138.21875 291.871094 148.90625 291.679688 C 173.359375 291.164062 197.808594 291.804688 222.257812 290.652344 C 248.117188 289.4375 273.914062 287.199219 299.578125 283.675781 C 306.683594 282.71875 307.324219 273.308594 303.484375 268.957031 C 235.507812 191.890625 155.050781 126.542969 77.21875 59.78125 C 54.5625 40.386719 32.480469 19.011719 7.644531 2.433594 C 3.613281 -0.257812 -0.164062 5.503906 2.714844 8.769531 Z M 2.78125 8.769531 " fill-opacity="1" fill-rule="nonzero"/><path fill="#efefef" d="M 450.507812 530.230469 C 448.714844 574.585938 453.003906 619.648438 458.316406 663.621094 L 471.691406 655.941406 C 447.945312 644.546875 423.625 634.691406 398.851562 625.921875 C 374.082031 617.152344 348.738281 608.511719 322.75 604.160156 C 311.804688 602.300781 307.386719 617.28125 318.140625 620.929688 C 342.71875 629.3125 367.808594 635.777344 392.390625 644.164062 C 416.96875 652.546875 440.96875 662.148438 464.84375 672.132812 C 471.757812 675.011719 476.75 667.011719 475.726562 661.253906 C 468.109375 617.726562 464.910156 574.140625 461.132812 530.230469 C 460.554688 523.511719 450.828125 523.316406 450.507812 530.230469 Z M 450.507812 530.230469 " fill-opacity="1" fill-rule="nonzero"/></svg>