<svg xmlns="http://www.w3.org/2000/svg" xmlns:xlink="http://www.w3.org/1999/xlink" width="2048" zoomAndPan="magnify" viewBox="0 0 1536 1535.999932" height="2048" preserveAspectRatio="xMidYMid meet" version="1.0"><defs><clipPath id="124ab9d6f5"><path d="M 162 305 L 323 305 L 323 558.75 L 162 558.75 Z M 162 305 " clip-rule="nonzero"/></clipPath></defs><path fill="#efefef" d="M 252.09375 277.277344 C 249.8125 278.867188 249.164062 281.449219 247.910156 283.59375 C 243.179688 291.683594 237.449219 298.929688 229.9375 304.574219 C 210.183594 319.417969 188.953125 321.734375 166.527344 311.398438 C 154.785156 305.984375 145.566406 297.429688 138.125 286.925781 C 130.71875 276.46875 125.851562 264.898438 123.203125 252.378906 C 122.460938 248.875 121.773438 245.355469 120.996094 241.511719 C 113.988281 243.546875 107.804688 246.265625 101.15625 247.421875 C 78.300781 251.40625 56.925781 247.992188 37.777344 234.371094 C 10.96875 215.296875 0.363281 181.433594 11.007812 149.742188 C 22.160156 116.546875 54.066406 92.589844 89.101562 91.289062 C 94.699219 91.082031 100.320312 91.589844 105.933594 91.714844 C 108.691406 91.78125 109.210938 91.425781 109.9375 88.554688 C 111.792969 81.203125 113.683594 73.875 116.464844 66.796875 C 123.800781 48.148438 134.582031 31.984375 150.410156 19.441406 C 164.472656 8.296875 180.515625 2.097656 198.371094 0.921875 C 212.0625 0.0195312 225.167969 2.929688 237.707031 8.398438 C 256.480469 16.585938 271.273438 29.636719 283.34375 45.96875 C 284.847656 48 286.203125 50.136719 287.683594 52.183594 C 289.675781 54.9375 290.347656 55.128906 293.058594 53.082031 C 313.277344 37.835938 336.058594 34.558594 360.21875 39.367188 C 385.683594 44.4375 406.675781 57.246094 422.476562 78.03125 C 431.3125 89.65625 436.960938 102.726562 438.203125 117.386719 C 438.519531 121.128906 440.167969 122.648438 443.390625 123.960938 C 448.308594 125.964844 453.164062 128.285156 457.703125 131.035156 C 492.222656 151.9375 504.789062 190.792969 499.492188 221.894531 C 493.398438 257.671875 466.554688 287.429688 431.441406 295.351562 C 398.847656 302.703125 370.332031 294.511719 346.226562 271.269531 C 345.015625 270.101562 343.914062 268.816406 342.695312 267.65625 C 341.09375 266.125 340.128906 266.246094 338.585938 268.1875 C 337.363281 269.722656 336.265625 271.359375 335.050781 272.90625 C 329.984375 279.355469 324.21875 285.066406 317.289062 289.519531 C 297.644531 302.144531 275.472656 299.863281 258.703125 283.597656 C 256.519531 281.480469 254.921875 278.71875 252.09375 277.277344 Z M 482.964844 208.621094 C 483.519531 176.910156 463.273438 148.589844 433.113281 138.902344 C 431.777344 138.472656 430.40625 138.152344 429.066406 137.75 C 424.535156 136.394531 422.144531 133.152344 421.300781 128.679688 C 420.992188 127.035156 420.914062 125.332031 420.882812 123.652344 C 420.613281 108.308594 414.675781 95.214844 404.605469 83.988281 C 388 65.476562 367.046875 55.628906 342.238281 55.066406 C 324.382812 54.664062 308.417969 59.972656 296.617188 74.445312 C 296.261719 74.878906 295.898438 75.316406 295.496094 75.703125 C 291.234375 79.777344 286.421875 79.761719 282.050781 75.738281 C 279.730469 73.601562 278.234375 70.90625 276.710938 68.214844 C 271.277344 58.625 264.722656 49.886719 256.765625 42.238281 C 248.375 34.175781 238.976562 27.582031 228.023438 23.496094 C 204.351562 14.664062 182.25 17.546875 161.964844 32.808594 C 152.851562 39.667969 145.785156 48.351562 140.105469 58.183594 C 133.140625 70.230469 128.773438 83.207031 126.464844 96.902344 C 126.136719 98.839844 125.8125 100.78125 125.34375 102.683594 C 124.371094 106.644531 121.6875 108.84375 117.800781 109.742188 C 113.617188 110.707031 109.429688 110.609375 105.265625 109.699219 C 96.875 107.859375 88.480469 108.121094 80.179688 110.011719 C 55.101562 115.722656 37.121094 130.070312 28.140625 154.445312 C 19.363281 178.273438 26.796875 204.015625 46.289062 218.800781 C 60.445312 229.53125 76.539062 233.261719 94.003906 230.707031 C 105.257812 229.0625 115.777344 225.277344 124.871094 218.164062 C 130.414062 213.828125 138.304688 217.859375 138.527344 224.472656 C 138.621094 227.277344 138.523438 230.089844 138.601562 232.894531 C 139.011719 247.507812 142.609375 261.210938 150.449219 273.648438 C 155.933594 282.347656 162.914062 289.5625 172.066406 294.457031 C 181.285156 299.386719 191.003906 301.230469 201.378906 299.0625 C 210.203125 297.21875 217.539062 292.796875 223.804688 286.46875 C 231.515625 278.683594 236.175781 269.183594 239.207031 258.785156 C 239.910156 256.363281 240.53125 253.898438 241.460938 251.5625 C 242.917969 247.898438 245.578125 245.445312 249.671875 245.351562 C 253.375 245.265625 256.035156 247.304688 257.777344 250.480469 C 258.855469 252.445312 259.761719 254.507812 260.769531 256.515625 C 263.820312 262.605469 267.679688 268.09375 272.859375 272.566406 C 282.777344 281.125 294.144531 282.25 305.644531 275.867188 C 309.863281 273.527344 313.5 270.460938 316.820312 266.992188 C 321.714844 261.878906 325.625 256.066406 328.917969 249.824219 C 329.964844 247.839844 330.84375 245.75 332.023438 243.847656 C 335.390625 238.429688 342.066406 237.796875 346.210938 242.566406 C 347.855469 244.460938 349.050781 246.738281 350.492188 248.808594 C 363.472656 267.476562 381.390625 278.117188 403.910156 280.117188 C 446.160156 283.867188 482.222656 251.003906 482.964844 208.617188 Z M 482.964844 208.621094 " fill-opacity="1" fill-rule="nonzero"/><g clip-path="url(#124ab9d6f5)"><path fill="#efefef" d="M 245.835938 396.171875 C 248.097656 397.269531 250.34375 396.628906 252.515625 396.351562 C 272.273438 393.832031 292.023438 391.242188 311.777344 388.671875 C 312.054688 388.632812 312.332031 388.574219 312.613281 388.574219 C 315.632812 388.550781 319.726562 386.5625 321.410156 389.027344 C 323.667969 392.339844 319.523438 394.96875 317.785156 397.570312 C 283.675781 448.703125 249.464844 499.765625 215.253906 550.832031 C 213.699219 553.152344 212.019531 555.402344 210.316406 557.621094 C 209.777344 558.328125 208.863281 558.40625 208.035156 558.0625 C 207.175781 557.707031 206.816406 556.925781 206.859375 556.058594 C 207.023438 552.679688 207.828125 549.449219 208.800781 546.199219 C 217.980469 515.570312 227.050781 484.90625 236.1875 454.261719 C 239.363281 443.601562 239.382812 444.144531 228.957031 443.832031 C 209.039062 443.234375 189.117188 442.539062 169.203125 441.808594 C 161.183594 441.519531 160.910156 440.851562 165.003906 433.691406 C 187.5625 394.222656 210.265625 354.835938 232.472656 315.171875 C 235.980469 308.914062 239.746094 306.644531 246.84375 306.789062 C 261.425781 307.089844 276.027344 306.28125 290.621094 306.023438 C 292.761719 305.984375 295.46875 305.03125 296.882812 307.277344 C 298.550781 309.9375 296.09375 311.972656 294.863281 313.996094 C 279.695312 338.929688 264.4375 363.808594 249.261719 388.738281 C 247.851562 391.058594 245.628906 393.082031 245.835938 396.171875 Z M 245.835938 396.171875 " fill-opacity="1" fill-rule="nonzero"/></g></svg>